<?xml version="1.0" encoding="UTF-8"?>
<svg xmlns="http://www.w3.org/2000/svg" xmlns:xlink="http://www.w3.org/1999/xlink" width="48pt" height="48pt" viewBox="0 0 48 48" version="1.1">
<g id="surface3359">
<path style=" stroke:none;fill-rule:nonzero;fill:black;fill-opacity:1;" d="M 18 2.167969 C 9.273438 2.167969 2.167969 9.273438 2.167969 18 C 2.167969 26.726562 9.273438 33.832031 18 33.832031 C 21.777344 33.832031 25.25 32.5 27.972656 30.28125 L 39.097656 44.214844 C 39.097656 44.214844 41.535156 44.578125 43.046875 43 C 44.570312 41.410156 44.214844 39.101562 44.214844 39.101562 L 30.28125 27.972656 C 32.5 25.25 33.832031 21.777344 33.832031 18 C 33.832031 9.273438 26.726562 2.167969 18 2.167969 Z M 18 5.332031 C 25.015625 5.332031 30.667969 10.984375 30.667969 18 C 30.667969 25.015625 25.015625 30.667969 18 30.667969 C 10.984375 30.667969 5.332031 25.015625 5.332031 18 C 5.332031 10.984375 10.984375 5.332031 18 5.332031 Z M 18 5.332031 "/>
</g>
</svg>
