<svg xmlns="http://www.w3.org/2000/svg" width="118.636" height="34.07" viewBox="0 0 118.636 34.07">
  <g id="Group_8485" data-name="Group 8485" transform="translate(-465.142 -165.845)">
    <g id="Group_8484" data-name="Group 8484" transform="translate(493.421 166.545)">
      <rect id="Rectangle_5486" data-name="Rectangle 5486" width="23.527" height="7.458" transform="translate(0 12.526)"/>
      <rect id="Rectangle_5487" data-name="Rectangle 5487" width="23.527" height="7.681" transform="translate(0 24.99)"/>
      <rect id="Rectangle_5488" data-name="Rectangle 5488" width="23.527" height="7.477" transform="translate(0 0)"/>
    </g>
    <path id="Path_32534" data-name="Path 32534" d="M546.08,193.074V166.766h-8.354v31.78Z" transform="translate(-17.443 -0.221)"/>
    <rect id="Rectangle_5489" data-name="Rectangle 5489" width="23.527" height="7.458" transform="translate(560.251 179.071)"/>
    <rect id="Rectangle_5490" data-name="Rectangle 5490" width="23.527" height="7.681" transform="translate(560.251 191.535)"/>
    <path id="Path_32535" data-name="Path 32535" d="M484.417,187.349a10.98,10.98,0,0,0,4.06-3.9,10.164,10.164,0,0,0,1.494-5.391,10.662,10.662,0,0,0-3.384-8.1,11.734,11.734,0,0,0-8.378-3.2H465.142v32.1l8.354-5.152v-4.826h2.987l5.694,10.548h8.961Zm-3.78-6.534a3.188,3.188,0,0,1-2.521.98H473.5v-7.328h4.62a3.334,3.334,0,0,1,2.521,1.027,4.1,4.1,0,0,1,0,5.321Z" transform="translate(0 -0.221)"/>
    <path id="Path_32536" data-name="Path 32536" d="M590.338,173.822v.421h23.527v-7.477H602.255Z" transform="translate(-30.087 -0.221)"/>
    <path id="Path_32537" data-name="Path 32537" d="M565.295,199.915a15.572,15.572,0,0,1-8.587-2.193,11.577,11.577,0,0,1-4.76-5.928l7.14-4.154a6.486,6.486,0,0,0,6.441,4.341q3.827,0,3.827-2.174,0-1.435-2.206-2.313-.931-.385-4.094-1.3a17.93,17.93,0,0,1-7.095-3.664,8.377,8.377,0,0,1-2.613-6.558,9.214,9.214,0,0,1,3.243-7.327,11.952,11.952,0,0,1,8.1-2.8,13.828,13.828,0,0,1,7.281,1.914,21.432,21.432,0,0,1,6.41,7.382l-6.776,4.265c-1.027-2.427-4.5-5.626-6.868-5.626a3.592,3.592,0,0,0-2.264.61,1.9,1.9,0,0,0-.77,1.549,2.168,2.168,0,0,0,1.141,1.83,19.117,19.117,0,0,0,4.449,1.736q2.33.841,3.8,1.37a15.458,15.458,0,0,1,3.2,1.673,7.067,7.067,0,0,1,2.57,2.933,9.832,9.832,0,0,1,.842,4.214,9.062,9.062,0,0,1-3.407,7.514A14.06,14.06,0,0,1,565.295,199.915Z" transform="translate(-20.861)"/>
  </g>
</svg>
